<?xml version="1.0" standalone="no"?>
<!DOCTYPE svg PUBLIC "-//W3C//DTD SVG 20010904//EN"
 "http://www.w3.org/TR/2001/REC-SVG-20010904/DTD/svg10.dtd">
<svg version="1.0" xmlns="http://www.w3.org/2000/svg"
 width="300.000000pt" height="300.000000pt" viewBox="0 0 300.000000 300.000000"
 preserveAspectRatio="xMidYMid meet">
<metadata>
Created by potrace 1.10, written by Peter Selinger 2001-2011
</metadata>
<g transform="translate(0.000000,300.000000) scale(0.100000,-0.100000)"
fill="#000000" stroke="none">
<path d="M1307 2545 c-280 -61 -546 -230 -709 -449 -306 -411 -263 -967 102
-1335 152 -154 337 -255 565 -307 109 -26 368 -26 473 -1 287 68 526 238 693
490 106 161 157 319 166 509 14 295 -85 549 -300 767 -221 225 -498 342 -802
340 -71 -1 -156 -7 -188 -14z m403 -21 c301 -62 595 -274 745 -538 96 -170
148 -410 126 -586 -30 -235 -121 -425 -293 -605 -222 -234 -473 -344 -781
-345 -541 -1 -993 365 -1082 876 -68 388 110 781 459 1015 133 90 238 138 380
175 138 36 295 39 446 8z"/>
<path d="M1320 2504 c-211 -46 -413 -152 -572 -302 -94 -89 -160 -178 -214
-288 -168 -344 -122 -737 122 -1042 148 -185 336 -304 595 -374 72 -19 108
-23 249 -23 181 0 249 13 399 74 168 68 336 199 454 353 68 89 147 246 178
353 20 69 24 103 24 240 0 136 -3 172 -23 244 -105 384 -432 679 -850 766 -90
19 -273 18 -362 -1z m361 -34 c24 -6 71 -19 104 -28 141 -37 333 -151 448
-265 63 -63 131 -145 135 -163 2 -8 7 -14 12 -14 4 0 10 -8 14 -17 3 -10 14
-31 24 -48 36 -59 82 -195 97 -291 33 -203 2 -387 -95 -570 -65 -123 -171
-258 -238 -305 -12 -9 -39 -32 -60 -51 -20 -19 -44 -37 -52 -41 -8 -4 -37 -21
-65 -37 -27 -17 -57 -33 -65 -36 -8 -3 -23 -9 -32 -14 -139 -74 -437 -105
-614 -64 -117 27 -212 61 -302 110 -107 58 -126 71 -216 159 -171 165 -263
338 -301 570 -8 44 -7 208 0 246 3 13 8 40 11 59 18 106 104 299 165 371 16
19 29 37 29 40 0 3 20 26 43 50 163 165 347 274 547 324 134 34 314 41 411 15z"/>
<path d="M1270 2067 c-87 -31 -125 -51 -189 -101 -105 -79 -167 -160 -216
-282 -71 -177 -54 -361 51 -531 69 -112 177 -202 301 -253 135 -55 310 -59
433 -10 49 20 70 18 155 -11 48 -16 93 -29 101 -29 36 0 6 19 -92 57 l-105 42
-77 -26 c-66 -23 -93 -27 -187 -27 -93 0 -122 5 -183 26 -287 102 -453 393
-387 677 47 196 223 380 419 436 94 27 250 17 342 -22 126 -53 241 -156 302
-270 86 -163 95 -358 23 -527 -19 -44 -19 -46 0 -162 10 -65 17 -119 16 -120
-2 -2 -36 10 -76 26 -40 17 -79 30 -87 30 -17 0 -64 -21 -64 -29 0 -3 35 -20
78 -38 114 -47 113 -47 110 -32 -2 9 4 13 15 11 23 -4 56 36 57 68 0 14 -7 62
-14 107 l-15 82 31 88 c28 79 31 100 31 203 1 152 -25 240 -105 360 -35 52
-158 180 -173 180 -4 0 -19 8 -33 19 -15 10 -61 31 -102 46 -61 23 -96 28
-185 31 -96 4 -118 1 -175 -19z"/>
<path d="M1327 1895 c-197 -54 -350 -283 -318 -475 38 -227 211 -381 427 -382
82 0 188 26 181 45 -3 7 -21 53 -42 104 l-37 92 -121 3 c-67 2 -123 2 -125 1
-2 -1 -9 -23 -16 -50 l-12 -48 -57 -3 -56 -3 13 43 c8 24 56 168 107 321 l93
277 31 0 c30 0 32 -4 82 -117 140 -323 236 -538 240 -543 9 -10 65 67 100 138
98 200 22 438 -177 555 -91 53 -214 69 -313 42z m267 -63 c74 -35 153 -108
185 -171 12 -22 19 -41 15 -41 -4 0 -1 -7 7 -16 8 -9 15 -52 17 -105 4 -74 1
-99 -17 -147 -12 -32 -34 -71 -48 -86 -24 -26 -26 -26 -37 -9 -11 16 -74 158
-171 383 -74 170 -84 189 -115 205 -16 8 -30 18 -30 22 0 17 134 -7 194 -35z
m-240 10 c-30 -24 -32 -28 -128 -317 -48 -143 -89 -266 -92 -274 -10 -29 -42
21 -69 106 -21 65 -26 98 -22 137 8 77 29 134 51 140 12 3 17 10 12 21 -3 9
-2 14 3 11 4 -3 14 6 22 20 7 15 37 48 66 74 29 27 53 53 53 58 0 12 68 40
100 41 l25 1 -21 -18z m163 -618 c18 -24 48 -122 41 -130 -13 -13 -80 -22
-142 -19 -45 2 -82 11 -122 30 l-58 27 28 21 c16 11 35 35 42 53 16 38 33 43
129 39 52 -3 72 -8 82 -21z"/>
<path d="M1190 1730 c-27 -28 -50 -56 -50 -63 0 -7 25 15 55 47 30 33 55 61
55 63 0 9 -14 -2 -60 -47z"/>
<path d="M1386 1619 c-17 -56 -66 -235 -66 -241 0 -5 41 -8 90 -8 50 0 90 2
90 4 0 7 -100 249 -105 254 -2 3 -6 -1 -9 -9z m40 -164 c13 -39 10 -45 -22
-45 -29 0 -35 19 -18 60 16 37 22 35 40 -15z"/>
</g>
</svg>
